PathFileType	4	(X/Y/Z)	D:\TRACE\spot_10-12-23\spot_body_motion_3_5-platform.trc
DataRate	CameraRate	NumFrames	NumMarkers	Units	OrigDataRate	OrigDataStartFrame	OrigNumFrames
100.00	100.00	      60	5	mm	100.00	2626	      7000
Frame#	Time	Left_Front			Right_Front			Left_Aft			Right_Aft			Post			
		X1	Y1	Z1	X2	Y2	Z2	X3	Y3	Z3	X4	Y4	Z4	X5	Y5	Z5	

2626	26.250	-776.44812	63.93795	-625.35229	796.24432	67.82362	-618.40106	-692.92297	-34.82848	508.22586	724.16339	-37.21717	594.15131	6.30356	826.04260	-878.78210	
2627	26.260	-776.69263	64.44418	-625.10394	796.15863	68.32497	-618.30865	-693.17029	-35.18409	508.29742	724.13416	-37.59588	594.33020	6.17913	826.65466	-878.07764	
2628	26.270	-776.72974	64.67823	-624.88239	795.84808	68.86870	-618.27399	-693.31561	-35.50074	508.44061	724.06842	-38.04684	594.49506	6.01600	827.27057	-877.38318	
2629	26.280	-776.81677	64.97890	-624.76697	795.67889	69.37017	-618.02972	-693.46771	-35.79174	508.54816	723.94501	-38.49257	594.41583	5.88096	827.87079	-876.61475	
2630	26.290	-777.01294	65.59312	-624.62848	795.66949	69.74373	-617.86359	-693.55035	-36.12211	508.64590	723.75128	-39.00378	594.34680	5.52137	828.46405	-876.05164	
2631	26.300	-777.20435	66.27924	-624.47083	795.52893	70.08447	-617.67181	-693.62122	-36.42269	508.66440	723.64374	-39.36626	594.37213	5.29097	829.28345	-875.49182	
2632	26.310	-777.29742	66.69291	-624.35321	795.26404	70.53373	-617.47455	-693.84973	-36.74134	508.74792	723.51440	-39.77972	594.47168	5.26194	829.95972	-874.74561	
2633	26.320	-777.40851	67.04173	-624.17188	795.11237	71.06393	-617.31915	-694.01257	-37.15720	508.87231	723.38068	-40.13680	594.72198	5.00505	830.57275	-873.87390	
2634	26.330	-777.50720	67.46523	-623.93140	795.03699	71.54335	-617.16412	-694.15790	-37.49514	509.03857	723.26086	-40.40149	594.89526	5.14272	831.11639	-873.11115	
2635	26.340	-777.66382	67.74589	-623.63141	794.99762	72.10314	-616.98212	-694.37244	-37.92787	509.10370	723.14178	-40.83676	594.93445	4.95711	831.88055	-872.39600	
2636	26.350	-777.89325	68.34752	-623.43390	794.81262	72.72219	-616.84625	-694.52740	-38.19817	509.15656	722.98389	-41.29725	595.04474	4.83305	832.60175	-871.70355	
2637	26.360	-777.98096	69.00526	-623.39868	794.77710	73.12864	-616.68835	-694.69934	-38.61721	509.25580	722.83221	-41.76738	595.15485	4.74633	833.20911	-871.19177	
2638	26.370	-778.20660	69.73281	-623.26642	794.58942	73.55352	-616.60455	-694.86792	-38.82508	509.33276	722.66632	-42.45891	595.19977	4.47123	834.00714	-870.17151	
2639	26.380	-778.54120	70.31413	-623.10492	794.25580	74.22910	-616.47125	-695.02228	-39.16426	509.42795	722.38623	-42.83155	595.34515	4.48111	834.80164	-869.21039	
2640	26.390	-778.67273	70.63883	-622.98590	794.02167	74.63293	-616.22113	-695.23297	-39.61295	509.52158	722.23242	-43.03600	595.41632	4.02930	835.36237	-868.48016	
2641	26.400	-778.89685	70.98457	-622.93335	793.84839	74.95575	-615.97498	-695.40710	-39.93719	509.66986	721.95581	-43.41527	595.37885	3.96954	835.94299	-867.70374	
2642	26.410	-779.06580	71.43605	-622.74933	793.77814	75.41403	-615.81958	-695.52728	-40.25987	509.77957	721.82941	-43.92654	595.57196	3.50497	836.62225	-867.02814	
2643	26.420	-779.28632	72.20804	-622.47168	793.61334	76.02830	-615.69318	-695.67157	-40.57926	509.85526	721.54572	-44.24415	595.56464	3.23130	837.30029	-866.26782	
2644	26.430	-779.38751	72.66646	-622.36835	793.32660	76.58066	-615.55255	-695.79742	-40.95699	509.83810	721.32751	-44.76245	595.57532	3.28801	837.93982	-865.42474	
2645	26.440	-779.54004	73.19341	-622.25757	793.07593	77.03676	-615.38623	-696.03888	-41.41965	509.86746	721.14471	-45.16439	595.66254	3.22079	838.60858	-864.80011	
2646	26.450	-779.70947	73.73413	-622.08978	792.88916	77.41015	-615.21729	-696.20483	-41.77342	509.96548	720.93341	-45.43118	595.79681	3.29860	839.32086	-864.07233	
2647	26.460	-779.80597	74.11904	-621.80048	792.71124	77.92958	-615.04120	-696.39935	-42.09297	510.00140	720.78705	-45.95954	595.88330	3.12728	840.00317	-863.30634	
2648	26.470	-780.02283	74.49214	-621.62646	792.62830	78.46906	-614.74347	-696.57568	-42.52275	510.07315	720.75018	-46.55290	595.91620	2.66321	840.74249	-862.82355	
2649	26.480	-780.26196	75.00211	-621.53833	792.34546	78.95466	-614.69867	-696.80853	-42.79856	510.17749	720.59595	-47.00225	595.98584	2.32786	841.51813	-861.98053	
2650	26.490	-780.58783	75.77571	-621.22083	792.20465	79.45364	-614.50421	-696.92462	-43.13919	510.28796	720.45984	-47.50849	596.11035	2.21473	841.99432	-861.30811	
2651	26.500	-780.72595	76.17794	-620.99719	792.16028	80.10627	-614.22968	-697.08356	-43.48488	510.42099	720.39374	-47.87127	596.25708	2.20697	842.74829	-860.24127	
2652	26.510	-780.75763	76.41308	-620.84448	792.06732	80.57450	-614.05017	-697.16766	-43.98063	510.72812	720.25220	-48.17016	596.34595	1.98533	843.47028	-859.49445	
2653	26.520	-780.89117	77.05360	-620.75366	791.95374	80.83086	-613.96277	-697.44849	-44.50606	510.76648	719.92352	-48.60590	596.47797	1.56458	844.13678	-858.55817	
2654	26.530	-781.02142	77.41663	-620.51398	791.73444	81.32835	-613.78485	-697.54102	-44.85542	510.89563	719.75262	-48.91875	596.44446	1.41699	844.64923	-857.90424	
2655	26.540	-781.27930	78.16763	-620.39252	791.52417	81.84576	-613.66681	-697.61786	-45.10175	511.03625	719.45416	-49.31601	596.54114	1.19324	845.23010	-857.20520	
2656	26.550	-781.40259	78.44535	-620.27917	791.32312	82.28479	-613.57031	-697.87067	-45.26992	511.10202	719.25336	-49.75337	596.54016	1.28892	845.91681	-856.29767	
2657	26.560	-781.49347	78.64581	-620.10468	791.18335	82.71020	-613.44122	-698.13824	-45.48716	511.05475	719.21960	-50.16635	596.61115	1.32085	846.58850	-855.64838	
2658	26.570	-781.78265	79.15460	-619.80194	790.93884	83.16205	-613.20294	-698.39441	-45.89630	511.18057	719.13708	-50.55679	596.75043	0.95287	847.14050	-855.16779	
2659	26.580	-781.75513	79.52017	-619.69055	790.72162	83.58879	-613.08673	-698.60901	-46.18008	511.32526	718.94116	-50.99553	596.97211	0.87674	847.77637	-854.57526	
2660	26.590	-781.94519	79.99763	-619.65924	790.59875	84.03838	-612.99133	-698.66412	-46.42602	511.48257	718.79321	-51.39378	597.04382	0.56967	848.42224	-854.00763	
2661	26.600	-782.24500	80.51379	-619.53253	790.43414	84.46251	-612.84875	-698.77344	-46.58159	511.38431	718.57782	-51.70584	597.11603	0.43895	849.13385	-853.54675	
2662	26.610	-782.39886	80.91262	-619.33881	790.21844	84.88815	-612.54663	-698.95099	-46.94625	511.36676	718.36719	-52.07169	597.16565	0.30361	849.57813	-852.97260	
2663	26.620	-782.53748	81.34256	-619.11285	789.99054	85.18903	-612.40393	-699.14099	-47.36849	511.44241	718.25104	-52.31187	597.15576	-0.04323	850.13391	-852.18762	
2664	26.630	-782.69781	81.76452	-618.93164	789.82446	85.41908	-612.30212	-699.40326	-47.80536	511.43805	718.15295	-52.60767	597.13483	-0.13544	850.51276	-851.44763	
2665	26.640	-782.82849	82.04443	-618.81769	789.58099	85.80898	-612.18817	-699.50433	-48.03697	511.51288	717.96075	-52.87212	597.19623	-0.21980	851.00385	-850.81677	
2666	26.650	-783.02905	82.48100	-618.81329	789.38306	86.27793	-612.04242	-699.59564	-48.29232	511.58694	717.87274	-53.21894	597.38409	-0.43917	851.55225	-850.25232	
2667	26.660	-783.05731	82.70396	-618.62988	789.13214	86.62820	-611.99207	-699.66119	-48.54167	511.66241	717.72498	-53.58004	597.42694	-0.38793	851.86475	-849.82208	
2668	26.670	-783.29053	83.10451	-618.44452	789.08905	86.93064	-611.90283	-699.75830	-48.70256	511.68051	717.48853	-54.00214	597.43481	-0.62527	852.43445	-849.25635	
2669	26.680	-783.40790	83.49380	-618.33258	789.10614	87.32655	-611.83881	-699.91064	-48.92791	511.71222	717.22949	-54.36359	597.35791	-1.03503	852.99078	-848.75220	
2670	26.690	-783.85449	84.21462	-618.18420	789.05603	87.75723	-611.76550	-700.17847	-49.22467	511.78650	717.09583	-54.61491	597.34393	-0.92462	853.41516	-848.21832	
2671	26.700	-783.85986	84.36791	-618.22955	788.95728	88.10187	-611.56128	-700.35596	-49.45645	511.82327	716.96790	-54.79550	597.37793	-1.06312	853.81348	-847.76270	
2672	26.710	-783.96124	84.58738	-618.19238	788.84955	88.34943	-611.40967	-700.43390	-49.65185	511.87189	716.83533	-55.02139	597.41730	-1.03457	854.33136	-847.00836	
2673	26.720	-784.07300	84.84571	-618.11792	788.86749	88.55205	-611.22101	-700.54736	-49.86217	511.90625	716.73218	-55.18353	597.44360	-1.10126	854.61682	-846.55872	
2674	26.730	-784.03955	84.86406	-617.94336	788.71875	88.77309	-611.10919	-700.61230	-50.03815	511.94666	716.57324	-55.38018	597.49573	-1.19217	854.91937	-846.21991	
2675	26.740	-784.21326	85.22952	-617.76923	788.55762	89.05319	-611.06976	-700.61694	-50.19183	511.98703	716.54150	-55.67815	597.58899	-1.38729	855.34918	-845.86572	
2676	26.750	-784.35431	85.50848	-617.62427	788.42914	89.28466	-611.06360	-700.69525	-50.19333	511.98785	716.41644	-55.88310	597.61975	-1.68614	855.66498	-845.53375	
2677	26.760	-784.47772	85.57310	-617.63800	788.26648	89.43124	-611.02454	-700.84766	-50.47728	512.01367	716.29242	-55.91901	597.65289	-1.90290	855.82544	-845.16620	
2678	26.770	-784.60303	85.79543	-617.58154	788.11761	89.67174	-610.94489	-700.97162	-50.69790	512.02911	716.17523	-56.04181	597.68597	-1.90086	856.00562	-844.79169	
2679	26.780	-784.68182	85.89787	-617.58478	788.02417	89.77840	-610.86969	-701.11774	-50.79795	512.00159	716.14343	-56.27436	597.66614	-2.13262	856.25513	-844.56482	
2680	26.790	-784.85913	86.15998	-617.48840	787.89636	89.91594	-610.77527	-701.10028	-50.95114	512.02356	716.08087	-56.31686	597.69922	-2.28733	856.45679	-844.44952	
2681	26.800	-784.98425	86.35751	-617.40387	787.84235	90.06959	-610.71790	-701.19305	-51.09019	512.02271	716.05157	-56.46756	597.73859	-2.38335	856.70728	-844.33331	
2682	26.810	-784.96436	86.57235	-617.29889	787.84924	90.28056	-610.63660	-701.38391	-51.24278	512.05499	715.99585	-56.68696	597.73065	-2.42780	856.93640	-844.19794	
2683	26.820	-785.08118	86.62689	-617.29187	787.87671	90.30302	-610.58313	-701.43726	-51.34528	512.08496	715.92761	-56.82352	597.78937	-2.51812	857.18433	-844.05853	
2684	26.830	-785.12469	86.72523	-617.22815	787.86151	90.41629	-610.50470	-701.52155	-51.42876	512.11145	715.87689	-56.89586	597.83270	-2.56798	857.36774	-843.93494	
2685	26.840	-785.14923	86.84909	-617.15875	787.79907	90.63158	-610.45081	-701.55298	-51.56527	512.13251	715.83966	-57.07836	597.88275	-2.39424	857.50043	-843.76685	
